<?xml version="1.0" standalone="no"?>
<!DOCTYPE svg PUBLIC "-//W3C//DTD SVG 20010904//EN"
 "http://www.w3.org/TR/2001/REC-SVG-20010904/DTD/svg10.dtd">
<svg version="1.0" xmlns="http://www.w3.org/2000/svg"
 width="128.000000pt" height="128.000000pt" viewBox="0 0 128.000000 128.000000"
 preserveAspectRatio="xMidYMid meet">

<g transform="translate(0.000000,128.000000) scale(0.100000,-0.100000)"
fill="#000000" stroke="none">
<path d="M509 1213 c-12 -57 -18 -70 -42 -81 -25 -12 -32 -10 -88 24 l-60 38
-81 -82 -82 -81 38 -60 c35 -58 36 -62 22 -89 -13 -26 -24 -31 -81 -42 l-65
-12 0 -118 0 -118 66 -13 c56 -11 68 -17 80 -41 14 -27 13 -32 -22 -89 l-37
-61 55 -56 c47 -49 54 -61 48 -82 -5 -14 -8 -76 -9 -137 l-1 -113 395 0 395 0
0 78 c0 42 -4 104 -10 136 l-10 60 51 58 50 58 -36 60 c-34 56 -35 61 -21 88
12 24 24 30 80 41 l66 13 0 118 0 118 -65 12 c-57 11 -68 16 -81 42 -14 27
-13 31 22 89 l38 60 -81 81 -81 81 -61 -37 c-56 -34 -63 -36 -88 -24 -24 11
-30 23 -42 81 l-14 67 -117 0 -117 0 -14 -67z m201 -72 l12 -60 62 -25 61 -24
35 21 c19 11 43 25 52 31 14 8 25 4 53 -24 19 -19 35 -38 35 -43 0 -6 -13 -31
-29 -56 l-28 -47 24 -61 24 -61 60 -12 59 -13 0 -57 0 -57 -59 -13 c-33 -7
-62 -18 -64 -24 -3 -6 -14 -34 -25 -62 l-20 -50 34 -54 34 -54 -21 -22 -21
-23 -50 54 c-27 29 -69 63 -94 76 l-45 22 30 31 c42 43 61 95 61 166 0 71 -15
112 -60 164 -96 109 -261 113 -365 10 -46 -47 -75 -115 -75 -180 0 -45 26
-113 60 -156 l30 -36 -54 -30 c-29 -17 -70 -50 -90 -73 l-36 -43 -22 22 c-23
23 -21 33 21 97 l19 30 -24 61 -25 62 -60 12 -59 13 0 57 0 57 59 13 60 12 24
61 24 61 -28 47 c-16 25 -29 50 -29 56 0 5 16 24 35 43 38 36 42 36 110 -9
l30 -19 61 24 62 25 12 60 13 59 57 0 57 0 13 -59z m9 -285 c44 -23 88 -80 96
-124 25 -152 -142 -264 -267 -178 -57 39 -73 70 -73 145 0 58 4 73 27 103 15
19 42 42 60 51 41 21 120 22 157 3z m85 -440 c95 -47 147 -134 154 -258 l5
-78 -317 0 -316 0 0 78 c0 64 5 88 26 130 29 58 78 106 138 134 58 26 252 22
310 -6z"/>
</g>
</svg>
