<?xml version="1.0" standalone="no"?>
<!DOCTYPE svg PUBLIC "-//W3C//DTD SVG 20010904//EN"
 "http://www.w3.org/TR/2001/REC-SVG-20010904/DTD/svg10.dtd">
<svg version="1.0" xmlns="http://www.w3.org/2000/svg"
 width="128.000000pt" height="128.000000pt" viewBox="0 0 128.000000 128.000000"
 preserveAspectRatio="xMidYMid meet">

<g transform="translate(0.000000,128.000000) scale(0.100000,-0.100000)"
fill="#000000" stroke="none">
<path d="M553 1271 c-90 -23 -191 -105 -219 -177 -13 -33 -15 -70 -13 -166 4
-111 7 -129 32 -180 16 -33 49 -76 78 -102 45 -41 49 -48 49 -90 0 -51 9 -47
-155 -81 -107 -23 -171 -59 -207 -114 -15 -25 -49 -109 -75 -188 -44 -131 -46
-144 -31 -159 10 -10 23 -14 36 -10 16 6 32 40 72 160 57 171 75 198 154 221
l46 14 0 -83 c0 -79 -2 -85 -25 -100 -63 -41 -69 -129 -14 -182 41 -39 114
-42 153 -5 57 53 55 139 -5 182 -28 20 -29 22 -29 113 l0 92 50 10 51 11 58
-96 c46 -78 62 -96 81 -96 19 0 35 18 81 96 l58 96 51 -11 50 -10 0 -53 c0
-29 -4 -53 -10 -53 -22 0 -90 -74 -100 -108 -13 -48 -13 -158 0 -183 13 -23
81 -27 100 -4 14 17 4 55 -16 55 -11 0 -14 15 -14 60 0 51 4 65 25 85 30 31
73 32 109 4 23 -18 26 -28 26 -81 0 -49 -4 -63 -21 -77 -18 -15 -20 -21 -10
-39 9 -17 21 -22 49 -22 55 0 62 12 62 105 -1 103 -22 154 -79 187 -38 21 -41
26 -41 65 l0 42 47 -14 c77 -23 96 -52 155 -225 44 -129 57 -156 74 -158 11
-2 27 4 34 13 12 14 8 35 -29 148 -87 266 -89 267 -418 342 -20 5 -23 12 -23
51 0 42 4 49 49 90 29 26 62 69 78 102 25 51 28 69 32 180 2 97 0 133 -13 167
-21 53 -99 128 -163 156 -53 23 -177 34 -230 20z m215 -97 c76 -38 112 -86
112 -148 l0 -50 -35 34 -34 33 -66 -21 c-82 -28 -128 -28 -210 0 l-66 21 -34
-33 -35 -34 0 50 c0 40 6 56 30 86 72 87 230 116 338 62z m-156 -241 c45 -3
96 -1 126 6 48 12 51 12 97 -21 46 -32 47 -34 42 -76 -7 -61 -53 -131 -111
-167 -44 -27 -58 -30 -126 -30 -68 0 -82 3 -126 30 -58 36 -104 106 -111 167
-5 41 -3 44 39 75 30 23 50 31 68 27 14 -3 59 -8 102 -11z m108 -407 c0 -27
-11 -59 -37 -103 -20 -34 -40 -63 -43 -63 -3 0 -23 29 -43 63 -26 44 -37 76
-37 103 l0 39 80 0 80 0 0 -39z m-330 -381 c7 -9 10 -25 6 -40 -6 -22 -11 -26
-39 -23 -25 2 -33 8 -35 26 -7 44 41 70 68 37z"/>
</g>
</svg>
