<?xml version="1.0" standalone="no"?>
<!DOCTYPE svg PUBLIC "-//W3C//DTD SVG 20010904//EN"
 "http://www.w3.org/TR/2001/REC-SVG-20010904/DTD/svg10.dtd">
<svg version="1.0" xmlns="http://www.w3.org/2000/svg"
 width="128.000000pt" height="128.000000pt" viewBox="0 0 128.000000 128.000000"
 preserveAspectRatio="xMidYMid meet">

<g transform="translate(0.000000,128.000000) scale(0.100000,-0.100000)"
fill="#000000" stroke="none">
<path d="M255 1262 c-49 -23 -93 -67 -111 -109 -32 -75 -7 -179 50 -204 21
-10 24 -18 30 -117 7 -125 32 -189 95 -248 27 -26 41 -48 41 -64 0 -24 -7 -27
-105 -54 -145 -39 -204 -85 -240 -187 -19 -52 -21 -249 -3 -267 14 -14 974
-17 996 -3 8 4 16 26 19 48 l5 40 61 6 c105 9 137 49 137 172 0 91 -17 138
-70 199 -25 28 -34 49 -38 86 -4 43 -2 50 20 64 30 20 48 56 48 99 1 25 8 36
33 52 53 33 57 52 57 258 l0 189 -29 29 -29 29 -142 0 -142 0 -29 -29 -29 -29
0 -189 c0 -206 4 -225 57 -258 25 -16 32 -27 33 -52 0 -42 18 -79 47 -98 14
-10 23 -25 23 -41 0 -56 23 -114 66 -164 l44 -52 0 -89 c0 -85 -1 -89 -23 -95
-13 -3 -41 -4 -63 -2 -39 3 -39 3 -45 54 -8 60 -19 82 -67 136 -45 50 -75 65
-192 97 -82 23 -95 30 -98 50 -3 17 7 32 38 58 22 19 53 58 68 87 26 50 27 57
30 243 3 165 1 197 -14 228 -24 51 -73 85 -136 94 -29 5 -69 17 -88 27 -52 28
-249 32 -305 6z m290 -84 c17 -13 47 -23 79 -26 71 -6 96 -31 96 -95 l0 -49
-32 6 c-18 3 -52 20 -76 36 -49 34 -54 35 -85 16 -43 -28 -145 -55 -214 -58
-58 -2 -75 0 -92 16 -39 35 -16 121 41 156 28 17 50 20 144 20 99 0 114 -2
139 -22z m655 -28 l0 -50 -120 0 -120 0 0 50 0 50 120 0 120 0 0 -50z m0 -214
c0 -76 -3 -95 -16 -100 -20 -8 -188 -8 -208 0 -13 5 -16 24 -16 100 l0 94 120
0 120 0 0 -94z m-593 30 c26 -13 63 -27 81 -31 l32 -7 0 -94 c0 -108 -11 -144
-60 -191 -98 -95 -251 -77 -327 39 -25 36 -28 52 -31 142 l-4 101 76 12 c42 7
95 21 119 32 55 25 57 25 114 -3z m511 -242 c-7 -57 -69 -57 -76 0 -3 24 -1
26 38 26 39 0 41 -2 38 -26z m-528 -263 c0 -64 -28 -101 -76 -101 -52 0 -74
28 -74 95 l0 55 75 0 75 0 0 -49z m-220 -71 c0 -30 58 -89 100 -101 21 -6 54
-9 74 -5 44 8 104 63 112 104 l6 30 82 -22 c108 -30 141 -49 174 -98 24 -36
27 -53 30 -135 l4 -93 -51 0 -51 0 0 49 c0 65 -7 81 -36 81 -29 0 -44 -31 -44
-91 l0 -39 -260 0 -260 0 0 49 c0 65 -7 81 -36 81 -29 0 -44 -31 -44 -91 l0
-39 -45 0 -45 0 0 90 c0 143 34 186 182 230 51 15 96 26 101 23 4 -2 7 -13 7
-23z"/>
</g>
</svg>
